<?xml version="1.0" encoding="UTF-8" standalone="no"?>
<svg
   width="24"
   height="24"
   viewBox="0 0 24 24"
   fill="none"
   stroke="currentColor"
   stroke-width="2"
   stroke-linecap="round"
   stroke-linejoin="round"
   class="lucide lucide-mail-icon lucide-mail"
   version="1.1"
   id="svg1"
   xmlns="http://www.w3.org/2000/svg"
   xmlns:svg="http://www.w3.org/2000/svg">
  <defs
     id="defs1">
    <clipPath
       clipPathUnits="userSpaceOnUse"
       id="clipPath34">
      <path
         id="path35"
         style="fill:#ff0000;fill-opacity:1;fill-rule:nonzero;stroke:none"
         d="m 1,3 v 18 h 22 v -8.111328 h -0.849609 c -0.209825,-0.0015 -0.421214,0.0081 -0.63086,0.01563 -0.05883,-4.4e-4 -0.115448,0.0057 -0.173828,0.01172 -0.0097,9.95e-4 -0.01903,0.0034 -0.02539,0.0039 h -0.002 c -8.3e-4,9.6e-5 -0.005,0.0018 -0.0059,0.002 h -0.002 c -0.0012,4.34e-4 -0.0027,-4.29e-4 -0.0039,0 l 0.002,-0.002 c -0.0012,3.1e-5 -0.003,3.6e-5 -0.0039,0 v 0.002 c -0.10381,0.03783 -0.210852,0.05679 -0.320313,0.07031 -0.09531,0.0068 -0.191599,0.0069 -0.287109,0.0078 -0.06326,4.87e-4 -0.126194,0.0018 -0.189454,0.002 -1.838752,0.0054 -1.9024,-1.793919 -0.179687,-1.912109 2.94e-4,-0.004 0.0017,-0.0078 0.002,-0.01172 -0.0042,-2.13e-4 -0.0093,2.21e-4 -0.01367,0 -0.07865,-0.004 -0.158218,-0.0075 -0.236328,-0.01758 -0.0593,-0.0076 -0.117161,-0.02338 -0.175781,-0.03516 -0.04163,-0.01791 -0.110196,-0.0159 -0.142578,-0.04102 -0.0071,-0.0066 -0.01388,-0.0166 -0.01563,-0.02734 -0.03939,-0.24513 -0.03877,-0.505061 0.02148,-0.746093 -0.121881,3.48e-4 -0.248713,0.0044 -0.36914,-0.02149 -0.04246,-0.0091 -0.112112,-0.0021 -0.140626,-0.02734 l -0.002,-0.002 c -0.0023,-0.003 -0.0075,-0.01077 -0.0098,-0.01563 v -0.002 -0.002 C 19.109209,9.3367307 19.041051,9.424374 19.43543,9.2889875 c 0.240314,-0.045761 0.483165,-0.075791 0.726562,-0.099609 -0.0063,-0.00133 -0.0113,-0.00267 -0.01758,-0.00391 -0.109176,-0.1536168 -0.292585,-0.2758576 -0.328125,-0.4609375 -0.02347,-0.1222519 0.09064,-0.237308 0.175782,-0.328125 0.06525,-0.069602 0.168419,-0.092694 0.255859,-0.1308594 0.05756,-0.025122 0.117124,-0.042155 0.177734,-0.058594 0.176204,-0.047788 0.344513,-0.077368 0.523438,-0.1113281 0.119599,-0.01891 0.239394,-0.035029 0.359375,-0.050781 0.01525,-0.015152 0.02993,-0.031374 0.04492,-0.046875 0.03465,-0.1435713 0.07353,-0.286134 0.115234,-0.4277344 -0.275556,-0.209371 -0.544604,-0.4265399 -0.808594,-0.6503906 -0.388382,-0.3293316 -0.33969,-0.6964695 -0.09766,-0.8125 -0.004,-0.010102 -0.0076,-0.020851 -0.01172,-0.03125 -0.03404,-0.086976 0.04544,-0.1835983 0.08203,-0.2695313 0.0096,-0.022581 0.02111,-0.046485 0.0332,-0.070312 -0.0996,0.098676 -0.197005,0.2006383 -0.291016,0.3046875 C 20.25778,6.1697898 20.130814,6.294659 20.038931,6.4432815 19.598514,7.1556992 18.885813,6.7618454 19.298697,6.0331252 19.417221,5.8239368 19.587545,5.6496901 19.747916,5.4725783 19.847376,5.3647285 19.948864,5.2583948 20.052603,5.154219 19.749939,5.194026 19.442631,5.174805 19.138541,5.160079 18.978005,5.151669 18.818565,5.143867 18.658072,5.134688 18.338837,5.2636892 18.018586,5.3898785 17.695181,5.5077349 17.487261,5.5751019 17.200885,5.6767435 16.98815,5.6425005 16.805097,5.6130345 16.586014,5.5974165 16.46276,5.4589068 16.44302,5.4367218 16.4242,5.4151398 16.40612,5.3944538 c -0.09016,0.015128 -0.17326,0.011017 -0.251953,-0.00586 -0.02498,0.078821 -0.04982,0.1592748 -0.07422,0.2382812 -0.146263,0.4774529 -0.277619,0.9588889 -0.419922,1.4375 -0.05491,0.17132 -0.199335,0.6726106 -0.363281,0.6816407 C 14.236776,7.8043847 13.66986,7.8096397 13.68151,6.955 c 0.004,-0.3232523 0.0074,-0.6474352 0.0098,-0.9707031 0.0036,-0.6322011 0.0014,-1.26449 -0.01758,-1.8964844 C 13.66573,3.8176862 13.65758,3.548871 13.63857,3.2792188 13.63427,3.2179008 13.62825,3.156867 13.62294,3.095625 13.62024,3.063818 13.61894,3.031663 13.61514,2.999922 Z m 21.53125,0 c 0.01389,0.087963 0.01952,0.1637448 0.01758,0.234375 0.0068,-0.00504 0.01467,-0.010582 0.02148,-0.015625 0.08626,-0.063606 0.170423,-0.1333327 0.265626,-0.1835938 0.02176,-0.011492 0.04201,-0.02804 0.06641,-0.03125 C 22.914793,3.0028265 22.92608,3.00112 22.9375,3 Z m 0.09766,1.2226562 c -0.0075,0.00544 -0.0159,0.0102 -0.02344,0.015625 0.0397,0.060797 0.06676,0.1353268 0.08594,0.2050782 0.143756,0.1285247 0.198301,0.2529863 0.210938,0.3867187 0.01484,0.017554 0.03015,0.03867 0.04492,0.060547 0.03237,0.047957 0.04573,0.1024145 0.04883,0.1601562 0.0013,-5.851e-4 0.0026,-0.00136 0.0039,-0.00195 V 4.3632812 c -0.146829,0.03787 -0.288396,-0.015894 -0.371094,-0.140625 z m -0.875,2.4902344 c -0.0018,0.00107 -0.004,0.00287 -0.0059,0.00391 l 0.002,0.00195 h 0.002 c 7.08e-4,-0.00195 0.0012,-0.00391 0.002,-0.00586 z m -2.224609,2.6289063 -0.002,0.00195 h -0.002 -0.002 -0.002 v 0.00195 h -0.002 v 0.00195 h -0.002 v 0.00195 0.00195 l 0.002,0.00195 v 0.00195 l 0.002,0.00195 0.002,0.00195 c 8.96e-4,4.381e-4 0.0049,0.00163 0.0059,0.00195 0.01091,0.00231 0.02821,0.0015 0.03906,0.00195 v -0.00195 -0.00195 -0.00195 h -0.002 v -0.00195 l -0.002,-0.00195 -0.002,-0.00195 -0.002,-0.00195 c -0.0058,-0.00292 -0.01777,-0.00659 -0.02539,-0.00781 -0.0012,-8.54e-5 -0.0029,-5.38e-5 -0.0039,0 z" />
    </clipPath>
  </defs>
  <path
     d="M 21.75001,6.7187506 13.009,12.727 c -0.621085,0.36074 -1.387915,0.36074 -2.009,0 L 4.6227966,8.4641598"
     id="path1" />
  <rect
     x="2"
     y="4"
     width="20"
     height="16"
     rx="2"
     id="rect1"
     clip-path="url(#clipPath34)" />
  <path
     style="fill:#7c3aed;stroke:#000000;stroke-width:2;stroke-linecap:round;stroke-linejoin:round;stroke-dasharray:none;paint-order:stroke fill markers"
     d="m 6,4 h 8"
     id="path31" />
  <path
     style="fill:#7c3aed;stroke:#000000;stroke-width:2;stroke-linecap:round;stroke-linejoin:round;stroke-dasharray:none;paint-order:stroke fill markers"
     d="M 22,17 V 13"
     id="path36" />
</svg>
